<?xml version="1.0" encoding="UTF-8" standalone="no"?>
<!DOCTYPE svg PUBLIC "-//W3C//DTD SVG 20010904//EN"
              "http://www.w3.org/TR/2001/REC-SVG-20010904/DTD/svg10.dtd">

<svg xmlns="http://www.w3.org/2000/svg"
     width="640" height="640"
     viewBox="0 0 640 640">
  <path fill="#cf426c"
        d="M 130.00,89.00
           C 130.00,89.00 131.00,108.00 131.00,108.00
             131.00,108.00 131.00,137.00 131.00,137.00
             117.98,137.00 95.96,137.91 84.00,135.00
             82.38,140.71 82.38,160.29 84.00,166.00
             84.00,166.00 131.00,165.00 131.00,165.00
             131.00,165.00 131.00,205.00 131.00,205.00
             131.00,205.00 130.00,223.00 130.00,223.00
             130.00,223.00 162.00,223.00 162.00,223.00
             162.00,223.00 161.00,206.00 161.00,206.00
             161.00,206.00 161.00,165.00 161.00,165.00
             161.00,165.00 226.00,165.00 226.00,165.00
             226.00,182.44 225.08,207.79 218.94,224.00
             208.10,252.56 179.84,270.42 151.00,277.00
             157.23,287.66 161.61,286.86 169.00,304.00
             174.29,302.79 178.99,300.82 184.00,298.80
             212.10,287.46 237.10,266.08 247.46,237.00
             255.59,214.18 256.00,188.94 256.00,165.00
             256.00,165.00 305.00,166.00 305.00,166.00
             305.00,166.00 305.00,135.00 305.00,135.00
             288.85,137.89 272.34,137.00 256.00,137.00
             256.00,137.00 256.00,115.00 256.00,115.00
             256.00,115.00 256.96,104.00 256.96,104.00
             256.96,104.00 256.96,90.00 256.96,90.00
             256.96,90.00 225.00,90.00 225.00,90.00
             225.00,90.00 226.00,137.00 226.00,137.00
             226.00,137.00 161.00,137.00 161.00,137.00
             161.00,137.00 161.00,105.00 161.00,105.00
             161.00,105.00 162.00,89.00 162.00,89.00
             162.00,89.00 130.00,89.00 130.00,89.00 Z
           M 350.00,131.00
           C 363.65,138.30 379.45,149.87 391.00,160.16
             391.00,160.16 414.00,181.00 414.00,181.00
             414.00,181.00 428.00,163.00 428.00,163.00
             429.70,160.84 433.28,156.87 432.98,154.00
             432.68,151.25 428.96,147.96 427.00,146.17
             427.00,146.17 408.00,130.63 408.00,130.63
             408.00,130.63 382.00,112.58 382.00,112.58
             379.55,111.04 373.76,106.72 371.09,106.73
             368.25,106.74 365.91,110.04 364.25,112.00
             359.78,117.26 352.61,124.89 350.00,131.00 Z
           M 522.00,132.00
           C 511.09,163.47 489.77,196.33 464.00,217.54
             442.58,235.17 416.68,246.85 390.00,253.88
             378.03,257.04 361.25,260.96 349.00,261.00
             349.00,261.00 358.00,296.00 358.00,296.00
             358.00,296.00 386.00,289.13 386.00,289.13
             401.98,285.14 417.78,280.32 433.00,273.99
             475.64,256.25 507.82,228.48 531.80,189.00
             536.32,181.56 546.78,162.80 549.00,155.00
             549.00,155.00 533.00,141.99 533.00,141.99
             533.00,141.99 522.00,132.00 522.00,132.00 Z
           M 102.00,357.00
           C 102.00,357.00 102.00,390.00 102.00,390.00
             118.41,387.06 142.74,388.00 160.00,388.00
             160.00,388.00 252.00,388.00 252.00,388.00
             251.05,399.27 242.43,419.65 237.25,430.00
             212.87,478.63 173.08,505.63 123.00,523.00
             123.00,523.00 133.33,536.00 133.33,536.00
             133.33,536.00 144.00,553.00 144.00,553.00
             152.88,550.49 170.58,541.07 179.00,536.28
             213.04,516.93 242.72,489.55 261.69,455.00
             268.87,441.93 275.08,428.11 279.92,414.00
             279.92,414.00 286.85,391.06 286.85,391.06
             289.68,385.00 293.48,388.49 302.00,385.45
             313.19,381.47 320.86,371.98 321.00,360.00
             321.03,357.19 321.10,353.72 320.47,351.00
             317.67,338.81 306.31,330.15 294.00,330.00
             283.30,329.88 276.35,332.10 269.53,341.00
             263.27,349.18 265.39,355.38 261.69,357.83
             259.58,359.22 255.49,359.00 253.00,359.00
             253.00,359.00 160.00,359.00 160.00,359.00
             141.39,359.00 120.11,360.25 102.00,357.00 Z
           M 290.00,342.33
           C 310.97,340.47 315.24,366.41 299.00,372.99
             296.59,373.97 293.58,374.09 291.00,373.96
             278.47,373.30 272.44,359.23 279.14,349.04
             281.94,344.78 285.26,343.46 290.00,342.33 Z
           M 438.00,343.00
           C 438.00,343.00 438.00,471.00 438.00,471.00
             438.00,471.00 437.00,488.00 437.00,488.00
             437.00,488.00 437.00,517.00 437.00,517.00
             437.00,517.00 435.77,535.00 435.77,535.00
             436.42,537.46 438.93,540.06 440.58,542.00
             442.93,544.77 447.50,550.35 451.00,551.30
             454.01,552.11 459.09,549.37 462.00,548.20
             462.00,548.20 488.00,536.74 488.00,536.74
             520.92,519.75 541.45,492.87 555.00,459.00
             546.57,453.35 537.65,444.43 532.00,436.00
             532.00,436.00 520.14,462.00 520.14,462.00
             508.33,483.17 491.27,500.07 469.00,510.00
             469.00,510.00 469.00,405.00 469.00,405.00
             469.00,405.00 470.00,388.00 470.00,388.00
             470.00,388.00 470.00,359.00 470.00,359.00
             470.00,359.00 471.00,344.00 471.00,344.00
             471.00,344.00 455.00,344.00 455.00,344.00
             455.00,344.00 438.00,343.00 438.00,343.00 Z
           M 371.00,345.00
           C 372.82,355.17 372.14,386.95 372.00,399.00
             372.00,399.00 371.00,409.00 371.00,409.00
             371.00,409.00 371.00,418.00 371.00,418.00
             369.33,441.11 365.16,467.14 354.73,488.00
             350.14,497.18 342.69,508.41 335.83,516.00
             331.56,520.73 326.78,523.84 323.00,529.00
             329.76,533.56 335.24,537.72 340.56,544.00
             342.20,545.93 345.39,550.80 348.09,550.80
             351.11,550.80 356.74,544.25 358.71,542.00
             367.87,531.57 375.03,521.41 381.25,509.00
             394.45,482.66 399.05,459.11 401.09,430.00
             401.09,430.00 402.00,420.00 402.00,420.00
             402.00,420.00 403.00,402.00 403.00,402.00
             403.00,402.00 403.00,388.00 403.00,388.00
             403.00,388.00 404.04,372.00 404.04,372.00
             404.04,372.00 404.04,358.00 404.04,358.00
             404.04,358.00 405.00,347.00 405.00,347.00
             405.00,347.00 371.00,345.00 371.00,345.00 Z" />
</svg>
